<?xml version="1.0" encoding="utf-8"?>
<!-- Generator: Adobe Illustrator 16.0.0, SVG Export Plug-In . SVG Version: 6.00 Build 0)  -->
<!DOCTYPE svg PUBLIC "-//W3C//DTD SVG 1.1//EN" "http://www.w3.org/Graphics/SVG/1.1/DTD/svg11.dtd">
<svg version="1.1" id="Layer_10" xmlns="http://www.w3.org/2000/svg" xmlns:xlink="http://www.w3.org/1999/xlink" x="0px" y="0px"
	 width="100px" height="100px" viewBox="0 0 100 100" enable-background="new 0 0 100 100" xml:space="preserve">
<path d="M69.137,55.861h-3.726c-0.699-3.705-2.201-7.219-4.394-10.28l2.586-2.587c0.252-0.252,0.394-0.593,0.394-0.95
	c0-0.356-0.142-0.698-0.394-0.949l-4.513-4.514c-0.525-0.524-1.375-0.524-1.9,0l-2.662,2.663c-3.036-2.075-6.481-3.485-10.083-4.124
	v-3.782c0-0.742-0.602-1.344-1.344-1.344h-6.383c-0.742,0-1.344,0.602-1.344,1.344v3.782c-3.631,0.644-7.102,2.07-10.154,4.171
	l-2.592-2.59c-0.525-0.525-1.375-0.525-1.9,0l-4.513,4.514c-0.252,0.252-0.394,0.594-0.394,0.95s0.142,0.698,0.394,0.95l2.538,2.537
	c-2.167,3.048-3.651,6.536-4.345,10.209h-3.388c-0.742,0-1.344,0.601-1.344,1.344v6.382c0,0.743,0.602,1.344,1.344,1.344h3.275
	c0.616,3.702,2.045,7.244,4.18,10.365l-2.38,2.379c-0.525,0.525-0.525,1.376,0,1.9l4.514,4.515c0.251,0.252,0.594,0.394,0.95,0.394
	c0.356,0,0.698-0.142,0.95-0.394l2.305-2.304c3.146,2.252,6.756,3.774,10.56,4.447v3.221c0,0.742,0.602,1.344,1.344,1.344h6.383
	c0.742,0,1.344-0.602,1.344-1.344v-3.221c3.773-0.667,7.359-2.173,10.489-4.399l2.375,2.375c0.504,0.504,1.396,0.504,1.9,0
	l4.514-4.514c0.525-0.525,0.525-1.375,0-1.9l-2.429-2.429c2.163-3.14,3.607-6.705,4.228-10.436h3.614
	c0.742,0,1.344-0.601,1.344-1.344v-6.382C70.481,56.462,69.879,55.861,69.137,55.861z M40.079,74.562
	c-7.823,0-14.166-6.342-14.166-14.166c0-7.823,6.342-14.165,14.166-14.165s14.166,6.342,14.166,14.165
	C54.245,68.22,47.902,74.562,40.079,74.562z M45.454,60.396c0,2.969-2.407,5.376-5.375,5.376s-5.375-2.407-5.375-5.376
	c0-2.968,2.407-5.375,5.375-5.375S45.454,57.428,45.454,60.396z M89.682,30.28l-1.803-0.776c0.485-2.124,0.499-4.322,0.041-6.435
	l1.919-0.763c0.394-0.157,0.586-0.603,0.43-0.997l-1.348-3.389c-0.157-0.395-0.603-0.587-0.998-0.43l-1.978,0.787
	c-1.154-1.819-2.693-3.368-4.504-4.53l0.827-1.92c0.081-0.187,0.083-0.397,0.008-0.588c-0.075-0.188-0.223-0.341-0.41-0.42
	l-3.35-1.444c-0.389-0.167-0.841,0.013-1.009,0.401l-0.851,1.977c-2.05-0.46-4.178-0.481-6.225-0.061l-0.799-2.008
	c-0.157-0.394-0.604-0.586-0.998-0.43l-3.389,1.349c-0.394,0.157-0.586,0.604-0.43,0.997l0.799,2.009
	c-1.792,1.108-3.333,2.599-4.51,4.359l-1.923-0.828c-0.39-0.168-0.841,0.012-1.009,0.401l-1.443,3.35
	c-0.081,0.188-0.084,0.398-0.008,0.588c0.075,0.189,0.223,0.341,0.41,0.421l1.883,0.812c-0.506,2.075-0.558,4.241-0.15,6.338
	l-1.799,0.716c-0.394,0.157-0.586,0.603-0.43,0.997l1.348,3.389c0.157,0.395,0.603,0.587,0.998,0.43l1.739-0.692
	c1.109,1.836,2.616,3.415,4.409,4.621l-0.761,1.766c-0.167,0.39,0.012,0.842,0.401,1.01l3.35,1.443
	c0.187,0.08,0.398,0.084,0.587,0.008c0.189-0.075,0.341-0.223,0.421-0.409l0.737-1.71c2.146,0.531,4.384,0.577,6.546,0.131
	l0.68,1.709c0.157,0.395,0.603,0.587,0.998,0.43l3.389-1.348c0.394-0.156,0.586-0.604,0.43-0.997l-0.68-1.71
	c1.862-1.151,3.448-2.708,4.64-4.552l1.763,0.76c0.374,0.16,0.848-0.027,1.009-0.401l1.443-3.35
	C90.251,30.899,90.071,30.448,89.682,30.28z M76.444,33.558c-4.154,1.652-8.861-0.375-10.513-4.529s0.375-8.86,4.529-10.514
	c4.154-1.651,8.861,0.376,10.514,4.529C82.626,27.198,80.598,31.905,76.444,33.558z M76.306,24.901
	c0.627,1.576-0.142,3.362-1.718,3.989s-3.362-0.143-3.99-1.719c-0.626-1.576,0.143-3.362,1.719-3.989S75.68,23.325,76.306,24.901z"
	/>
</svg>
