<?xml version="1.0" encoding="iso-8859-1"?>
<!-- Generator: Adobe Illustrator 17.0.0, SVG Export Plug-In . SVG Version: 6.00 Build 0)  -->
<!DOCTYPE svg PUBLIC "-//W3C//DTD SVG 1.1//EN" "http://www.w3.org/Graphics/SVG/1.1/DTD/svg11.dtd">
<svg version="1.1" id="Capa_1" xmlns="http://www.w3.org/2000/svg" xmlns:xlink="http://www.w3.org/1999/xlink" x="0px" y="0px"
	 width="64px" height="64px" viewBox="0 0 64 64" style="enable-background:new 0 0 64 64;" xml:space="preserve">
<path d="M36.666,30.758h15c1.657,0,3-1.343,3-3v-15c0-1.657-1.343-3-3-3h-15c-1.657,0-3,1.343-3,3v15
	C33.666,29.415,35.01,30.758,36.666,30.758z M38.94,19.052h4.02v-4.02c0-0.667,0.541-1.207,1.206-1.207
	c0.667,0,1.207,0.541,1.207,1.207v4.02h4.02c0.666,0,1.206,0.54,1.206,1.206c0,0.666-0.54,1.206-1.206,1.206h-4.02v4.02
	c0,0.666-0.54,1.205-1.207,1.205c-0.665,0-1.206-0.54-1.206-1.205v-4.02h-4.02c-0.666,0-1.206-0.54-1.206-1.206
	C37.735,19.592,38.274,19.052,38.94,19.052z"/>
<path d="M12.333,55.243h15c1.657,0,3-1.343,3-3v-15c0-1.657-1.343-3-3-3h-15c-1.657,0-3,1.343-3,3v15
	C9.333,53.899,10.676,55.243,12.333,55.243z M15.285,40.195c0.472-0.472,1.234-0.472,1.705,0l2.842,2.843l2.843-2.843
	c0.471-0.471,1.235-0.471,1.706,0c0.471,0.472,0.471,1.235,0,1.706l-2.843,2.843l2.843,2.842c0.471,0.471,0.47,1.234-0.001,1.705
	c-0.471,0.471-1.234,0.472-1.705,0l-2.843-2.842l-2.842,2.842c-0.471,0.471-1.234,0.471-1.705,0c-0.47-0.47-0.471-1.234,0-1.705
	l2.842-2.842L15.285,41.9C14.813,41.43,14.814,40.666,15.285,40.195z"/>
<path d="M12.333,30.758h15c1.657,0,3-1.343,3-3v-15c0-1.657-1.343-3-3-3h-15c-1.657,0-3,1.343-3,3v15
	C9.333,29.415,10.676,30.758,12.333,30.758z M15.333,19.258h9c0.552,0,1,0.448,1,1c0,0.552-0.448,1-1,1h-9c-0.552,0-1-0.448-1-1
	C14.333,19.706,14.781,19.258,15.333,19.258z"/>
<path d="M36.666,55.243h15c1.657,0,3-1.343,3-3v-15c0-1.657-1.343-3-3-3h-15c-1.656,0-3,1.343-3,3v15
	C33.666,53.899,35.01,55.243,36.666,55.243z M44.166,51c-0.828,0-1.5-0.671-1.5-1.5s0.672-1.5,1.5-1.5c0.829,0,1.5,0.671,1.5,1.5
	S44.996,51,44.166,51z M44.166,40c0.829,0,1.5,0.671,1.5,1.5s-0.671,1.5-1.5,1.5c-0.828,0-1.5-0.671-1.5-1.5S43.338,40,44.166,40z
	 M39.666,44.625h9c0.552,0,1,0.448,1,1s-0.448,1-1,1h-9c-0.552,0-1-0.448-1-1S39.114,44.625,39.666,44.625z"/>
</svg>
