<?xml version="1.0" encoding="utf-8"?>
<!-- Generator: Adobe Illustrator 16.0.0, SVG Export Plug-In . SVG Version: 6.00 Build 0)  -->
<!DOCTYPE svg PUBLIC "-//W3C//DTD SVG 1.1//EN" "http://www.w3.org/Graphics/SVG/1.1/DTD/svg11.dtd">
<svg version="1.1" id="Layer_10" xmlns="http://www.w3.org/2000/svg" xmlns:xlink="http://www.w3.org/1999/xlink" x="0px" y="0px"
	 width="100px" height="100px" viewBox="0 0 100 100" enable-background="new 0 0 100 100" xml:space="preserve">
<path d="M78.584,54.941c0-12.036-6.486-22.481-15.926-27.588c-0.713-5.099-5.09-9.038-10.381-9.038
	c-1.182,0-2.314,0.205-3.375,0.566v-4.678c0-1.156-0.875-2.099-1.998-2.224V8.332c0-0.086-0.018-0.167-0.025-0.25h1.816
	c0.826,0,1.498-0.672,1.498-1.5V5.583c0-0.828-0.672-1.499-1.498-1.499H37.117c-0.828,0-1.5,0.671-1.5,1.499v0.999
	c0,0.828,0.672,1.5,1.5,1.5h1.814c-0.008,0.083-0.025,0.164-0.025,0.25v3.648c-1.123,0.125-1.998,1.066-1.998,2.224v32.984
	c0,1.221,0.973,2.209,2.186,2.243v15.124h0.078c0.352,0.428,1.889,1.125,3.732,1.125c1.846,0,3.383-0.697,3.734-1.125h0.076V49.432
	c1.213-0.034,2.188-1.022,2.188-2.243v-8.449c1.061,0.361,2.193,0.566,3.375,0.566c3.764,0,7.061-1.998,8.914-4.982
	c6.381,4.256,10.646,11.905,10.646,20.618c0,5.402-1.641,10.396-4.406,14.425l-7.533,3.009v-0.197H30.037v3.248h29.861v-1.437
	l5.686-2.271c-4.049,4.557-9.725,7.399-16.002,7.399v0.056h-6.676v7.746h-21.49v8.996H68.27V86.92H56.4v-1.926
	C69.111,81.715,78.584,69.489,78.584,54.941z M52.277,37.057c-4.547,0-8.246-3.699-8.246-8.246s3.699-8.246,8.246-8.246
	c3.602,0,6.664,2.325,7.785,5.552c-0.982-0.407-1.986-0.762-3.016-1.054c-1.111-1.413-2.832-2.324-4.77-2.324
	c-3.354,0-6.072,2.719-6.072,6.072s2.719,6.071,6.072,6.071c2.072,0,3.9-1.041,4.998-2.627c0.678,0.272,1.34,0.579,1.984,0.919
	C57.801,35.501,55.221,37.057,52.277,37.057z"/>
</svg>
