<?xml version="1.0" encoding="utf-8"?>
<!-- Generator: Adobe Illustrator 17.0.0, SVG Export Plug-In . SVG Version: 6.00 Build 0)  -->
<!DOCTYPE svg PUBLIC "-//W3C//DTD SVG 1.1//EN" "http://www.w3.org/Graphics/SVG/1.1/DTD/svg11.dtd">
<svg version="1.1" id="Layer_1" xmlns="http://www.w3.org/2000/svg" xmlns:xlink="http://www.w3.org/1999/xlink" x="0px" y="0px"
	 width="32px" height="32px" viewBox="0 0 32 32" enable-background="new 0 0 32 32" xml:space="preserve">
<g>
	<path d="M10.598,12.43c-0.144,0.298-0.163,0.642-0.054,0.955c0.109,0.312,0.34,0.569,0.639,0.713l1.11,0.532
		c0.619,0.297,1.363,0.038,1.663-0.581l0.111-0.229l0.14,0.066c0.619,0.297,1.362,0.036,1.662-0.582l1.669-3.447
		c0.913,0.512,1.871,1.208,2.551,2.123c0.94-0.857,2.188-1.377,3.559-1.377c0.137,0,0.271,0.007,0.403,0.017
		C22.908,8.533,21,7.116,19.306,6.203l0.74-1.53c0.144-0.299,0.164-0.644,0.055-0.956c-0.109-0.313-0.339-0.57-0.639-0.714
		L19.331,2.94c0.094-0.195,0.106-0.419,0.035-0.623c-0.07-0.204-0.221-0.371-0.415-0.465L17.06,0.946
		c-0.406-0.194-0.893-0.024-1.089,0.382L15.829,1.26c-0.62-0.297-1.363-0.036-1.663,0.582l-4.175,8.634
		c-0.144,0.299-0.164,0.643-0.055,0.955c0.11,0.313,0.34,0.57,0.639,0.714l0.131,0.062L10.598,12.43z"/>
	<path d="M20.096,19.766c-0.214,0.391-0.466,0.77-0.778,1.119c-0.758,0.848-1.771,1.443-3.05,1.785v-1.225h1.038V20.34
		c0-0.449-0.364-0.812-0.814-0.812H7.731c-0.449,0-0.812,0.363-0.812,0.812v1.105h1.799h0.038v6.363
		c-0.013,0.006-0.025,0.011-0.038,0.016c-1.999,0.803-3.648,2.25-4.659,4.167h16.134c-0.887-1.677-2.262-2.988-3.93-3.835
		c-0.038-0.02-0.077-0.037-0.115-0.057c0.041,0.02,0.08,0.037,0.12,0.058v-1.33c2.478-0.454,4.552-1.538,6.074-3.245
		c0.689-0.772,1.209-1.609,1.603-2.455c-0.098,0.006-0.197,0.009-0.296,0.009C22.281,21.136,21.034,20.616,20.096,19.766z"/>
	<path d="M23.647,11.616c-2.354,0-4.271,1.908-4.271,4.254s1.917,4.251,4.271,4.251c2.358,0,4.274-1.905,4.274-4.251
		S26.006,11.616,23.647,11.616z"/>
</g>
</svg>
