<?xml version="1.0" encoding="iso-8859-1"?>
<!-- Generator: Adobe Illustrator 16.0.4, SVG Export Plug-In . SVG Version: 6.00 Build 0)  -->
<!DOCTYPE svg PUBLIC "-//W3C//DTD SVG 1.1//EN" "http://www.w3.org/Graphics/SVG/1.1/DTD/svg11.dtd">
<svg version="1.1" id="Capa_1" xmlns="http://www.w3.org/2000/svg" xmlns:xlink="http://www.w3.org/1999/xlink" x="0px" y="0px"
	 width="32px" height="32px" viewBox="0 0 32 32" style="enable-background:new 0 0 32 32; fill: #001F3F;" xml:space="preserve">
<g id="Node">
	<g>
		<path d="M28,24c-0.738,0-1.424,0.215-2.02,0.566l-6.547-6.549C19.784,17.424,20,16.74,20,16c0-1.404-0.73-2.638-1.829-3.352
			l1.56-4.676C19.82,7.979,19.907,8,20,8c2.206,0,4-1.795,4-4c0-2.206-1.794-4-4-4s-4,1.794-4,4c0,1.405,0.73,2.637,1.829,3.352
			l-1.559,4.676C16.18,12.021,16.093,12,16,12c-2.206,0-4,1.794-4,4c0,0.46,0.094,0.895,0.237,1.307L7.222,20.65
			C6.493,19.654,5.325,19,4,19c-2.206,0-4,1.795-4,4s1.794,4,4,4s4-1.795,4-4c0-0.148-0.028-0.29-0.044-0.436l5.391-3.594
			C14.055,19.604,14.978,20,16,20c0.738,0,1.424-0.215,2.02-0.566l6.547,6.549C24.216,26.576,24,27.261,24,28c0,2.205,1.794,4,4,4
			s4-1.795,4-4S30.206,24,28,24z M4,25c-1.103,0-2-0.896-2-2s0.897-2,2-2s2,0.896,2,2S5.103,25,4,25z M16,18c-1.103,0-2-0.896-2-2
			c0-1.104,0.897-2,2-2c1.104,0,2,0.896,2,2C18,17.104,17.104,18,16,18z M18,4c0-1.104,0.896-2,2-2s2,0.896,2,2c0,1.103-0.896,2-2,2
			S18,5.103,18,4z M28,30c-1.104,0-2-0.896-2-2s0.896-2,2-2s2,0.896,2,2S29.104,30,28,30z"/>
	</g>
</g>
</svg>
