<?xml version="1.0" encoding="iso-8859-1"?>
<!-- Generator: Adobe Illustrator 16.0.0, SVG Export Plug-In . SVG Version: 6.00 Build 0)  -->
<!DOCTYPE svg PUBLIC "-//W3C//DTD SVG 1.1//EN" "http://www.w3.org/Graphics/SVG/1.1/DTD/svg11.dtd">
<svg version="1.1" id="Capa_1" xmlns="http://www.w3.org/2000/svg" xmlns:xlink="http://www.w3.org/1999/xlink" x="0px" y="0px"
	 width="500px" height="500px" viewBox="0 0 500 500" style="enable-background:new 0 0 500 500; fill: #001F3F;" xml:space="preserve">
<g>
	<path d="M250,212.131c-20.927,0-37.87,16.958-37.87,37.87c0,20.944,16.942,37.87,37.87,37.87c20.928,0,37.87-16.94,37.87-37.87
		C287.87,229.088,270.911,212.13,250,212.131z"/>
	<path d="M494.887,255.413c0-35.909-23.55-69.211-66.396-94.021v-5.498c2.198-26.238-0.281-51.391-7.172-72.744
		c-7.299-22.615-19.259-39.849-34.59-49.839c-13.656-8.875-29.68-13.375-47.624-13.375c-26.266,0-56.236,12.117-89.104,36.019
		c-32.871-23.902-62.842-36.019-89.105-36.019c-17.946,0-33.97,4.501-47.63,13.379c-15.326,9.986-27.285,27.22-34.583,49.835
		c-6.892,21.354-9.371,46.507-7.173,72.745v5.497c-42.846,24.814-66.396,58.116-66.396,94.022c0,37.677,25.725,72.209,72.491,97.391
		c-0.072,0.642-0.132,1.284-0.17,1.916c-3.858,53.21,11.138,93.324,42.224,112.956c13.031,8.221,28.149,12.389,44.934,12.389
		c25.863,0,55.362-10.074,85.409-29.15c30.045,19.074,59.544,29.148,85.407,29.15h0.004c16.783,0,31.898-4.168,44.932-12.39
		c31.086-19.632,46.081-59.736,42.227-112.891c-0.039-0.66-0.104-1.329-0.174-1.98C469.162,327.622,494.887,293.09,494.887,255.413z
		 M277.071,121.743c-15.474-0.76-38.67-0.76-54.144,0c8.731-8.726,17.808-16.88,27.073-24.319
		C259.258,104.857,268.335,113.013,277.071,121.743z M346.191,308.29c-12.728,20.373-19.332,27.478-31.32,40.374
		c-1.164,1.254-2.378,2.559-3.651,3.936l-6.005,6.487c-15.686,1.911-31.903,2.88-48.267,2.88h-13.896
		c-16.358,0-32.572-0.969-48.269-2.88l-6.004-6.488c-1.273-1.377-2.489-2.684-3.654-3.938
		c-11.988-12.896-18.591-20.003-31.315-40.368c-9.737-15.612-17.849-30.22-24.775-44.61c9.596-23.298,21.305-45.934,34.817-67.307
		c9.793-15.595,20.561-30.613,32.008-44.646c31.765-3.694,76.515-3.694,108.28,0c11.446,14.033,22.214,29.052,32.016,44.659
		c13.505,21.36,25.211,43.994,34.807,67.294C364.043,278.065,355.931,292.673,346.191,308.29z M384.017,300.451
		c3.622,12.382,6.375,24.505,8.205,36.142c-13.536,5.826-28.086,10.691-43.407,14.519c7.29-8.831,9.872-12.537,19.241-25.987
		l1.22-1.751C374.703,315.57,379.561,308.021,384.017,300.451z M151.183,351.108c-15.334-3.832-29.878-8.693-43.404-14.516
		c1.831-11.637,4.583-23.759,8.206-36.14c4.455,7.565,9.311,15.115,14.744,22.925l1.235,1.771
		C141.178,338.376,143.891,342.27,151.183,351.108z M81.723,323.307C50.071,304.127,32.7,280.122,32.7,255.413
		c0-23.358,15.704-46.306,44.353-65.027l0.349,2.15c4.227,26.066,11.08,49.926,20.941,72.897
		C90.894,285.194,85.311,304.637,81.723,323.307z M98.717,146.951c-2.054-41.961,9.563-77.474,29.603-90.478
		c9.078-5.93,20.038-8.937,32.576-8.937c19.832,0,43.478,9.799,70.318,29.132c-17.079,13.903-33.804,30.362-49.773,48.986
		c-30.5,4.41-58.269,11.881-82.678,22.233L98.717,146.951z M103.125,176.203c15.669-7.133,33.289-13.001,52.549-17.501
		c-5.263,7.392-10.396,15.045-15.316,22.83c-9.623,15.314-18.29,30.861-25.818,46.306c-5.085-15.323-8.572-30.337-10.623-45.702
		L103.125,176.203z M165.658,451.716c-11.664,0.002-22.001-2.786-30.724-8.287c-20.377-12.839-31.039-40.529-30.077-78.041
		c20.053,7.902,41.884,13.938,65.078,17.998l8.576,8.941c14.903,15.535,30.626,29.273,46.789,40.886
		C203.746,445.331,183.199,451.716,165.658,451.716z M213.983,388.62c10.075,0.665,19.627,0.991,29.071,0.991h13.893
		c9.445,0,18.998-0.326,29.071-0.991c-11.795,10.826-23.899,20.343-36.017,28.322C237.885,408.966,225.779,399.447,213.983,388.62z
		 M365.067,443.43c-8.722,5.499-19.059,8.286-30.725,8.286c-17.541,0-38.087-6.385-59.643-18.503
		c16.165-11.613,31.887-25.351,46.789-40.886l8.577-8.941c23.198-4.062,45.025-10.097,65.076-17.998
		C396.104,402.898,385.443,430.59,365.067,443.43z M396.083,182.136c-2.05,15.363-5.537,30.377-10.622,45.702
		c-7.528-15.448-16.198-30.999-25.824-46.317c-4.92-7.784-10.052-15.433-15.31-22.818c19.255,4.499,36.876,10.368,52.546,17.5
		L396.083,182.136z M401.284,146.95l-0.047,0.938c-24.423-10.355-52.191-17.825-82.678-22.233
		c-15.966-18.618-32.691-35.08-49.775-48.986c26.843-19.333,50.489-29.132,70.32-29.132c12.539,0,23.501,3.008,32.59,8.945
		C391.723,69.478,403.338,104.989,401.284,146.95z M418.277,323.307c-3.587-18.67-9.17-38.112-16.62-57.873
		c9.859-22.967,16.714-46.826,20.94-72.897l0.35-2.149c28.653,18.727,44.354,41.672,44.354,65.025
		C467.301,280.122,449.93,304.127,418.277,323.307z"/>
</g>
</svg>
